<?xml version="1.0" standalone="no"?>
<!DOCTYPE svg PUBLIC "-//W3C//DTD SVG 20010904//EN"
 "http://www.w3.org/TR/2001/REC-SVG-20010904/DTD/svg10.dtd">
<svg version="1.0" xmlns="http://www.w3.org/2000/svg"
 width="120.000000pt" height="86.000000pt" viewBox="0 0 120.000000 86.000000"
 preserveAspectRatio="xMidYMid meet">

<g transform="translate(0.000000,86.000000) scale(0.100000,-0.100000)"
fill="#000000" stroke="none">
<path d="M714 802 c22 -23 44 -38 49 -35 6 4 7 1 2 -6 -5 -9 17 -38 64 -85
l72 -72 124 31 c69 17 129 29 134 25 6 -3 -37 -28 -94 -55 -58 -26 -105 -51
-105 -53 0 -3 8 -14 17 -25 10 -10 20 -42 23 -70 l5 -51 86 125 c47 68 88 129
92 136 7 11 -122 57 -378 136 -143 44 -135 44 -91 -1z"/>
<path d="M335 473 c-24 -6 -53 -31 -67 -56 -15 -30 -37 -316 -26 -348 18 -53
106 -72 171 -37 24 13 47 68 47 113 0 35 -1 36 -32 33 -27 -2 -34 -8 -36 -28
-5 -36 -22 -51 -51 -48 l-26 3 2 123 c3 143 11 164 56 160 28 -3 32 -7 35 -36
3 -31 6 -33 35 -30 28 3 32 7 35 37 8 84 -56 135 -143 114z"/>
<path d="M10 430 c0 -39 1 -40 35 -40 19 0 35 -3 35 -7 0 -5 -7 -80 -15 -168
-20 -212 -21 -195 20 -195 30 0 35 3 35 23 0 24 16 213 26 295 5 51 6 52 39
52 35 0 45 13 45 56 0 24 0 24 -110 24 l-110 0 0 -40z"/>
<path d="M607 463 c-7 -11 -127 -424 -127 -435 0 -5 15 -8 33 -6 28 3 33 8 41
41 9 36 11 37 53 37 42 0 43 -1 49 -40 6 -38 8 -40 41 -40 34 0 35 1 30 33 -3
17 -16 119 -28 225 l-22 192 -33 0 c-18 0 -35 -3 -37 -7z m33 -193 l0 -90 -26
0 c-23 0 -25 3 -20 23 4 12 11 47 17 77 20 111 29 108 29 -10z"/>
<path d="M812 256 c-34 -118 -62 -220 -62 -226 0 -7 14 -10 32 -8 28 3 33 8
41 40 9 37 11 38 52 38 42 0 43 -1 49 -40 6 -38 8 -40 41 -40 35 0 35 0 29 38
-3 20 -15 120 -27 222 l-22 185 -36 3 -36 3 -61 -215z m93 7 c0 -75 -1 -78
-24 -81 -20 -3 -23 0 -18 20 3 12 11 51 18 85 6 35 14 61 18 59 3 -2 6 -39 6
-83z"/>
</g>
</svg>
